<svg xmlns="http://www.w3.org/2000/svg" fill="none" viewBox="0 0 500 500" height="500" width="500">
<g clip-path="url(#clip0_1456_831)">
<path fill="#FF2F2D" d="M175.442 237.474C209.918 255.01 259.478 227.811 286.054 176.274C312.63 124.737 306.165 68.9052 271.689 51.3684C237.212 33.8315 187.652 61.0315 161.077 112.568C134.501 164.105 140.965 219.579 175.442 237.474Z"></path>
<path fill="#FF2F2D" d="M68.4209 223.516C90.3278 231.389 117.622 210.274 128.755 176.632C139.888 142.989 131.269 109.347 109.362 101.474C87.4548 93.6 60.1609 114.716 49.0278 148.358C37.8948 182 46.1548 215.642 68.4209 223.516Z"></path>
<path fill="#FF2F2D" d="M448.022 311.558C430.065 291.874 391.638 297.958 361.83 325.516C332.023 353.074 322.685 390.653 340.283 410.337C357.88 430.021 396.666 423.937 426.474 396.737C456.282 369.537 465.978 331.242 448.022 311.558Z"></path>
<path fill="#FF2F2D" d="M402.771 273.621C437.966 227.095 441.557 170.189 411.031 146.21C380.505 122.232 327.354 140.842 292.159 187.368C256.964 233.895 253.373 290.442 283.899 314.421C314.425 338.4 367.936 320.147 402.771 273.621Z"></path>
<path fill="#FF2F2D" d="M188.37 345.2C149.584 326.232 112.953 253.937 66.9844 281.137C27.4801 304.4 51.1827 369.537 111.157 424.653C171.132 479.768 299.342 450.063 298.983 394.589C298.624 345.2 225.002 363.095 188.37 345.2Z"></path>
</g>
<defs>
<clipPath id="clip0_1456_831">
<rect transform="translate(44 46)" fill="white" height="408" width="413"></rect>
</clipPath>
</defs>
</svg>
 